<svg width="57" height="57" viewBox="0 0 57 57" fill="none" xmlns="http://www.w3.org/2000/svg">
<path d="M43.0494 33.8887C39.0876 33.8887 35.8645 37.1117 35.8645 41.0736C35.8645 45.0354 39.0876 48.2585 43.0494 48.2585C47.0119 48.2585 50.2343 45.0354 50.2343 41.0736C50.2343 37.1117 47.0113 33.8887 43.0494 33.8887ZM43.0494 44.666C41.0682 44.666 39.457 43.0548 39.457 41.0736C39.457 39.0924 41.0682 37.4811 43.0494 37.4811C45.0306 37.4811 46.6419 39.0924 46.6419 41.0736C46.6419 43.0549 45.0306 44.666 43.0494 44.666Z" fill="#6859AC"/>
<path d="M18.501 33.8887C14.5392 33.8887 11.3161 37.1117 11.3161 41.0736C11.3161 45.0354 14.5392 48.2585 18.501 48.2585C22.4629 48.2585 25.6859 45.0354 25.6859 41.0736C25.6859 37.1117 22.4629 33.8887 18.501 33.8887ZM18.501 44.666C16.5198 44.666 14.9086 43.0548 14.9086 41.0736C14.9086 39.0924 16.5198 37.4811 18.501 37.4811C20.4817 37.4811 22.0935 39.0924 22.0935 41.0736C22.0935 43.0549 20.4822 44.666 18.501 44.666Z" fill="#6859AC"/>
<path d="M47.8877 13.3231C47.5824 12.7166 46.9615 12.334 46.2825 12.334H36.8224V15.9264H45.1748L50.0659 25.6547L53.2763 24.0405L47.8877 13.3231Z" fill="#6859AC"/>
<path d="M37.6608 39.3372H24.0694V42.9296H37.6608V39.3372Z" fill="#6859AC"/>
<path d="M13.1122 39.3372H6.88543C5.89328 39.3372 5.08926 40.1413 5.08926 41.1333C5.08926 42.1255 5.89339 42.9295 6.88543 42.9295H13.1123C14.1045 42.9295 14.9085 42.1254 14.9085 41.1333C14.9085 40.1412 14.1044 39.3372 13.1122 39.3372Z" fill="#6859AC"/>
<path d="M56.6227 28.3564L53.0896 23.806C52.7501 23.3677 52.2262 23.1114 51.6712 23.1114H38.6186V10.5379C38.6186 9.54571 37.8145 8.7417 36.8224 8.7417H6.88543C5.89328 8.7417 5.08926 9.54582 5.08926 10.5379C5.08926 11.5299 5.89339 12.334 6.88543 12.334H35.0262V24.9075C35.0262 25.8997 35.8303 26.7037 36.8223 26.7037H50.7916L53.4074 30.0734V39.3371H48.4379C47.4457 39.3371 46.6417 40.1412 46.6417 41.1333C46.6417 42.1254 47.4458 42.9295 48.4379 42.9295H55.2036C56.1958 42.9295 56.9998 42.1253 56.9999 41.1333V29.4581C56.9999 29.0593 56.8669 28.6713 56.6227 28.3564Z" fill="#6859AC"/>
<path d="M12.9927 30.2363H4.73004C3.73788 30.2363 2.93387 31.0405 2.93387 32.0325C2.93387 33.0247 3.73799 33.8287 4.73004 33.8287H12.9926C13.9847 33.8287 14.7888 33.0245 14.7888 32.0325C14.7889 31.0405 13.9847 30.2363 12.9927 30.2363Z" fill="#6859AC"/>
<path d="M17.1239 23.1711H1.79617C0.804123 23.1711 0 23.9753 0 24.9674C0 25.9596 0.804123 26.7636 1.79617 26.7636H17.1239C18.1161 26.7636 18.9201 25.9595 18.9201 24.9674C18.9201 23.9754 18.1161 23.1711 17.1239 23.1711Z" fill="#6859AC"/>
<path d="M20.0578 16.106H4.73004C3.73788 16.106 2.93387 16.9101 2.93387 17.9021C2.93387 18.8943 3.73799 19.6983 4.73004 19.6983H20.0578C21.05 19.6983 21.854 18.8942 21.854 17.9021C21.8541 16.9101 21.05 16.106 20.0578 16.106Z" fill="#6859AC"/>
</svg>
