<svg width="350" height="231" viewBox="0 0 350 231" fill="none" xmlns="http://www.w3.org/2000/svg">
<g opacity="0.15">
<path d="M153.579 229.368H2V126.603H153.579V229.368Z" fill="white" stroke="#6859AC" stroke-width="3" stroke-linejoin="round"/>
<path d="M98.3423 217.165V199.181H142.018V217.165H98.3423Z" stroke="#6859AC" stroke-width="2" stroke-linejoin="round"/>
<path d="M37.3255 111.188L2 126.603H153.579L189.547 111.188H37.3255Z" fill="white" stroke="#6859AC" stroke-width="3" stroke-linejoin="round"/>
<path d="M153.578 126.603V229.368L189.546 213.953V111.188L153.578 126.603Z" fill="white" stroke="#6859AC" stroke-width="3" stroke-linejoin="round"/>
<path d="M98.3425 111.188L66.8706 126.603V146.514H93.8465V126.603L125.961 111.188H98.3425Z" stroke="#6859AC" stroke-width="3" stroke-linejoin="round"/>
<rect x="18.6995" y="200.466" width="28.2604" height="2.56913" fill="#6859AC"/>
<rect x="18.6995" y="206.888" width="3.8537" height="2.56913" fill="#6859AC"/>
<rect x="26.4065" y="206.888" width="3.8537" height="2.56913" fill="#6859AC"/>
<rect x="34.1144" y="206.888" width="3.8537" height="2.56913" fill="#6859AC"/>
<rect x="103.481" y="203.035" width="28.2604" height="2.56913" fill="#6859AC"/>
<rect x="103.48" y="209.458" width="3.8537" height="2.56913" fill="#6859AC"/>
<rect x="111.188" y="209.458" width="3.8537" height="2.56913" fill="#6859AC"/>
<rect x="118.895" y="209.458" width="3.8537" height="2.56913" fill="#6859AC"/>
<rect opacity="0.35" x="58.5206" y="131.741" width="30.8296" height="17.9839" fill="#6859AC"/>
<rect opacity="0.35" x="91.9197" y="194.685" width="44.9598" height="16.6993" fill="#6859AC"/>
<rect opacity="0.35" x="16.1302" y="198.539" width="29.545" height="3.8537" fill="#6859AC"/>
<path d="M311.58 229.368H160.001V126.603H311.58V229.368Z" fill="white" stroke="#6859AC" stroke-width="3" stroke-linejoin="round"/>
<path d="M256.344 217.165V199.181H300.019V217.165H256.344Z" stroke="#6859AC" stroke-width="2" stroke-linejoin="round"/>
<path d="M195.327 111.188L160.001 126.603H311.58L347.547 111.188H195.327Z" fill="white" stroke="#6859AC" stroke-width="3" stroke-linejoin="round"/>
<path d="M311.58 126.603V229.368L347.548 213.953V111.188L311.58 126.603Z" fill="white" stroke="#6859AC" stroke-width="3" stroke-linejoin="round"/>
<path d="M256.344 111.188L224.872 126.603V146.514H251.848V126.603L283.962 111.188H256.344Z" stroke="#6859AC" stroke-width="3" stroke-linejoin="round"/>
<rect x="176.701" y="200.466" width="28.2604" height="2.56913" fill="#6859AC"/>
<rect x="176.7" y="206.888" width="3.8537" height="2.56913" fill="#6859AC"/>
<rect x="184.408" y="206.888" width="3.8537" height="2.56913" fill="#6859AC"/>
<rect x="192.115" y="206.888" width="3.8537" height="2.56913" fill="#6859AC"/>
<rect x="261.482" y="203.035" width="28.2604" height="2.56913" fill="#6859AC"/>
<rect x="261.482" y="209.458" width="3.8537" height="2.56913" fill="#6859AC"/>
<rect x="269.19" y="209.458" width="3.8537" height="2.56913" fill="#6859AC"/>
<rect x="276.896" y="209.458" width="3.8537" height="2.56913" fill="#6859AC"/>
<rect opacity="0.35" x="216.522" y="131.741" width="30.8296" height="17.9839" fill="#6859AC"/>
<rect opacity="0.35" x="249.921" y="194.685" width="44.9598" height="16.6993" fill="#6859AC"/>
<rect opacity="0.35" x="174.132" y="198.539" width="29.545" height="3.8537" fill="#6859AC"/>
<path d="M153.579 120.18H2V17.415H153.579V120.18Z" fill="white" stroke="#6859AC" stroke-width="3" stroke-linejoin="round"/>
<path d="M98.3423 107.977V89.9929H142.018V107.977H98.3423Z" stroke="#6859AC" stroke-width="2" stroke-linejoin="round"/>
<path d="M37.3255 2L2 17.4148H153.579L189.547 2H37.3255Z" fill="white" stroke="#6859AC" stroke-width="3" stroke-linejoin="round"/>
<path d="M153.578 17.4148V120.18L189.546 104.765V2L153.578 17.4148Z" fill="white" stroke="#6859AC" stroke-width="3" stroke-linejoin="round"/>
<path d="M98.3425 2L66.8706 17.4148V37.3255H93.8465V17.4148L125.961 2H98.3425Z" stroke="#6859AC" stroke-width="3" stroke-linejoin="round"/>
<rect x="18.6995" y="91.2773" width="28.2604" height="2.56913" fill="#6859AC"/>
<rect x="18.6995" y="97.7" width="3.8537" height="2.56913" fill="#6859AC"/>
<rect x="26.4065" y="97.7" width="3.8537" height="2.56913" fill="#6859AC"/>
<rect x="34.1144" y="97.7" width="3.8537" height="2.56913" fill="#6859AC"/>
<rect x="103.481" y="93.8464" width="28.2604" height="2.56913" fill="#6859AC"/>
<rect x="103.48" y="100.269" width="3.8537" height="2.56913" fill="#6859AC"/>
<rect x="111.188" y="100.269" width="3.8537" height="2.56913" fill="#6859AC"/>
<rect x="118.895" y="100.269" width="3.8537" height="2.56913" fill="#6859AC"/>
<rect opacity="0.35" x="58.5206" y="22.553" width="30.8296" height="17.9839" fill="#6859AC"/>
<rect opacity="0.35" x="91.9197" y="85.4968" width="44.9598" height="16.6993" fill="#6859AC"/>
<rect opacity="0.35" x="16.1302" y="89.3506" width="29.545" height="3.8537" fill="#6859AC"/>
<path d="M311.58 120.18H160.001V17.415H311.58V120.18Z" fill="white" stroke="#6859AC" stroke-width="3" stroke-linejoin="round"/>
<path d="M256.344 107.977V89.9929H300.019V107.977H256.344Z" stroke="#6859AC" stroke-width="2" stroke-linejoin="round"/>
<path d="M195.327 2L160.001 17.4148H311.58L347.547 2H195.327Z" fill="white" stroke="#6859AC" stroke-width="3" stroke-linejoin="round"/>
<path d="M311.58 17.4148V120.18L347.548 104.765V2L311.58 17.4148Z" fill="white" stroke="#6859AC" stroke-width="3" stroke-linejoin="round"/>
<path d="M256.344 2L224.872 17.4148V37.3255H251.848V17.4148L283.962 2H256.344Z" stroke="#6859AC" stroke-width="3" stroke-linejoin="round"/>
<rect x="176.701" y="91.2773" width="28.2604" height="2.56913" fill="#6859AC"/>
<rect x="176.7" y="97.7" width="3.8537" height="2.56913" fill="#6859AC"/>
<rect x="184.408" y="97.7" width="3.8537" height="2.56913" fill="#6859AC"/>
<rect x="192.115" y="97.7" width="3.8537" height="2.56913" fill="#6859AC"/>
<rect x="261.482" y="93.8464" width="28.2604" height="2.56913" fill="#6859AC"/>
<rect x="261.482" y="100.269" width="3.8537" height="2.56913" fill="#6859AC"/>
<rect x="269.19" y="100.269" width="3.8537" height="2.56913" fill="#6859AC"/>
<rect x="276.896" y="100.269" width="3.8537" height="2.56913" fill="#6859AC"/>
<rect opacity="0.35" x="216.522" y="22.553" width="30.8296" height="17.9839" fill="#6859AC"/>
<rect opacity="0.35" x="249.921" y="85.4968" width="44.9598" height="16.6993" fill="#6859AC"/>
<rect opacity="0.35" x="174.132" y="89.3506" width="29.545" height="3.8537" fill="#6859AC"/>
</g>
</svg>
