<svg width="203" height="39" viewBox="0 0 203 39" fill="none" xmlns="http://www.w3.org/2000/svg">
<g clip-path="url(#clip0)">
<path d="M108.37 30.1379C109.343 29.1623 109.333 27.5905 108.348 26.6271L96.8109 15.3513C91.3547 10.0184 82.5634 10.0732 77.1757 15.4738C76.7263 15.9238 76.7313 16.6489 77.186 17.0933L94.8905 34.3977C97.4714 36.9201 101.629 36.8941 104.178 34.3398L108.37 30.1379Z" fill="url(#paint0_linear)"/>
<path fill-rule="evenodd" clip-rule="evenodd" d="M101.594 37.3748C101.047 38.0068 99.5696 38.8915 98.0372 37.3748C96.5049 35.8581 90.8314 30.4234 88.1865 27.8956C87.8215 27.6248 87.3656 26.8123 88.4602 25.729L110.351 4.06231C113.999 0.902591 123.485 -3.35852 132.241 4.87481C133.117 5.74148 132.423 6.68035 131.967 7.04148C131.967 7.04148 102.142 36.7428 101.594 37.3748ZM92.0174 26.8123L99.679 34.6665L128.684 5.68731C125.674 3.52064 117.958 0.866472 111.172 7.58314C104.385 14.2998 95.5746 23.2012 92.0174 26.8123Z" fill="white"/>
<path d="M143.728 26.2704H140.684V14.2331H136.48V11.7227H147.941V14.2331H143.728V26.2704Z" fill="white"/>
<path d="M152.669 14.102V18.7395H155.29C156.056 18.7395 156.651 18.5345 157.074 18.1245C157.504 17.7146 157.719 17.1466 157.719 16.4208C157.719 15.715 157.497 15.1538 157.054 14.7371C156.61 14.3137 156.012 14.102 155.259 14.102H152.669ZM152.669 20.9474V26.2704H149.625V11.7227H155.582C157.242 11.7227 158.532 12.1361 159.453 12.9628C160.38 13.7827 160.844 14.9152 160.844 16.3603C160.844 17.3079 160.609 18.1548 160.138 18.9008C159.675 19.6401 159.029 20.1711 158.203 20.4937L161.267 26.2704H157.82L155.108 20.9474H152.669Z" fill="white"/>
<path d="M172.375 26.2704L171.267 22.7419H166.156L165.047 26.2704H161.922L166.973 11.7227H170.551L175.611 26.2704H172.375ZM168.676 14.5053L166.811 20.4635H170.611L168.747 14.5053H168.676Z" fill="white"/>
<path d="M180.016 26.2704H177.103V11.7227H179.643L186.437 21.1994H186.518V11.7227H189.431V26.2704H186.911L180.107 16.7434H180.016V26.2704Z" fill="white"/>
<path d="M191.316 22.1269H194.249C194.317 22.7184 194.629 23.1989 195.187 23.5686C195.751 23.9315 196.44 24.113 197.253 24.113C198.06 24.113 198.715 23.9416 199.219 23.5988C199.73 23.2493 199.985 22.8057 199.985 22.2681C199.985 21.7976 199.797 21.4179 199.42 21.1288C199.044 20.8398 198.416 20.5979 197.535 20.403L195.64 19.9896C192.973 19.4183 191.639 18.0641 191.639 15.9268C191.639 14.596 192.156 13.5206 193.191 12.7007C194.233 11.8807 195.57 11.4707 197.203 11.4707C198.883 11.4707 200.223 11.8706 201.225 12.6704C202.226 13.4635 202.74 14.5221 202.767 15.8461H199.914C199.867 15.2345 199.595 14.7539 199.098 14.4044C198.607 14.0482 197.979 13.8701 197.213 13.8701C196.46 13.8701 195.852 14.0348 195.388 14.3641C194.931 14.6934 194.703 15.127 194.703 15.6646C194.703 16.1082 194.888 16.4678 195.257 16.7434C195.634 17.0189 196.242 17.2542 197.082 17.4491L198.846 17.8221C200.304 18.1313 201.366 18.6152 202.031 19.2738C202.696 19.9258 203.029 20.8062 203.029 21.9152C203.029 23.3266 202.498 24.449 201.436 25.2825C200.375 26.1091 198.94 26.5225 197.132 26.5225C195.378 26.5225 193.981 26.1327 192.939 25.353C191.904 24.5667 191.363 23.4913 191.316 22.1269Z" fill="white"/>
<path d="M6.88472 26.6343C4.76117 26.6343 3.08115 25.9656 1.84466 24.6281C0.614887 23.2839 0 21.4423 0 19.1034C0 16.7712 0.618247 14.9363 1.85474 13.5988C3.09123 12.2546 4.76789 11.5825 6.88472 11.5825C8.04057 11.5825 9.0889 11.811 10.0297 12.2681C10.9772 12.7251 11.7366 13.3703 12.3078 14.2037C12.879 15.0371 13.2016 15.9882 13.2755 17.0568H10.312C10.1708 16.1629 9.78443 15.4471 9.15274 14.9094C8.52777 14.3718 7.77177 14.1029 6.88472 14.1029C5.73558 14.1029 4.81829 14.5532 4.13285 15.4538C3.4474 16.3545 3.10467 17.5676 3.10467 19.0933C3.10467 20.6459 3.44404 21.8724 4.12277 22.7731C4.80149 23.667 5.7255 24.1139 6.8948 24.1139C7.79529 24.1139 8.55129 23.8652 9.16282 23.3679C9.77435 22.8705 10.1608 22.1917 10.322 21.3314H13.2856C13.1176 22.9512 12.4557 24.2416 11.2998 25.2027C10.144 26.1571 8.67226 26.6343 6.88472 26.6343Z" fill="white"/>
<path d="M27.811 26.3823H24.7668V20.2527H18.2148V26.3823H15.1706V11.8346H18.2148V17.7424H24.7668V11.8346H27.811V26.3823Z" fill="white"/>
<path d="M39.8668 23.8619V26.3823H30.2303V11.8346H39.8668V14.3449H33.2744V17.8533H39.4939V20.1922H33.2744V23.8619H39.8668Z" fill="white"/>
<path d="M48.4954 26.6343C46.3719 26.6343 44.6919 25.9656 43.4554 24.6281C42.2256 23.2839 41.6107 21.4423 41.6107 19.1034C41.6107 16.7712 42.2289 14.9363 43.4654 13.5988C44.7019 12.2546 46.3786 11.5825 48.4954 11.5825C49.6513 11.5825 50.6996 11.811 51.6404 12.2681C52.5879 12.7251 53.3473 13.3703 53.9185 14.2037C54.4897 15.0371 54.8123 15.9882 54.8862 17.0568H51.9227C51.7815 16.1629 51.3951 15.4471 50.7634 14.9094C50.1385 14.3718 49.3825 14.1029 48.4954 14.1029C47.3463 14.1029 46.429 14.5532 45.7435 15.4538C45.0581 16.3545 44.7154 17.5676 44.7154 19.0933C44.7154 20.6459 45.0547 21.8724 45.7335 22.7731C46.4122 23.667 47.3362 24.1139 48.5055 24.1139C49.406 24.1139 50.162 23.8652 50.7735 23.3679C51.385 22.8705 51.7715 22.1917 51.9327 21.3314H54.8963C54.7283 22.9512 54.0664 24.2416 52.9105 25.2027C51.7547 26.1571 50.283 26.6343 48.4954 26.6343Z" fill="white"/>
<path d="M59.8255 26.3823H56.7813V11.8346H59.8255V18.4682H59.9162L65.3796 11.8346H68.7665L63.3837 18.2868L69.1395 26.3823H65.5006L61.1863 20.3031L59.8255 21.9363V26.3823Z" fill="white"/>
</g>
<defs>
<linearGradient id="paint0_linear" x1="104.606" y1="35.0163" x2="78.6448" y2="8.78568" gradientUnits="userSpaceOnUse">
<stop stop-color="#FF4567"/>
<stop offset="1" stop-color="#FF758E"/>
</linearGradient>
<clipPath id="clip0">
<rect width="203" height="39" fill="white"/>
</clipPath>
</defs>
</svg>
