<svg width="45" height="45" viewBox="0 0 45 45" fill="none" xmlns="http://www.w3.org/2000/svg">
<path d="M40.4006 7.28665L23.174 0.134374C22.7425 -0.0447473 22.2574 -0.0448352 21.826 0.134374L4.5994 7.28665C3.9433 7.55911 3.51562 8.19966 3.51562 8.91008V17.6047C3.51562 29.5765 10.7516 40.3455 21.8357 44.8696C22.2615 45.0434 22.7384 45.0434 23.1643 44.8696C34.2483 40.3456 41.4844 29.5766 41.4844 17.6047V8.91008C41.4844 8.19966 41.0568 7.55911 40.4006 7.28665V7.28665ZM37.9688 17.6047C37.9688 27.7819 31.9922 37.1508 22.5 41.3328C13.2615 37.2625 7.03125 28.0578 7.03125 17.6047V10.0836L22.5 3.66107L37.9688 10.0836V17.6047ZM20.5571 23.5297L28.1125 15.9744C28.7989 15.2879 29.9119 15.2879 30.5984 15.9744C31.2849 16.6609 31.2848 17.7738 30.5983 18.4603L21.8 27.2586C21.1134 27.9452 20.0005 27.9449 19.3141 27.2586L14.4016 22.346C13.7151 21.6595 13.7151 20.5465 14.4016 19.8601C15.0881 19.1737 16.2011 19.1736 16.8875 19.8601L20.5571 23.5297Z" fill="#6859AC"/>
</svg>
