<svg width="50" height="50" viewBox="0 0 50 50" fill="none" xmlns="http://www.w3.org/2000/svg">
<g clip-path="url(#clip0)">
<path d="M8.42031 15.0217C7.89033 15.0217 7.45898 15.453 7.45898 15.9831C7.45898 16.5131 7.89023 16.9444 8.42031 16.9444C8.95039 16.9444 9.38164 16.5131 9.38164 15.9831C9.38164 15.453 8.95029 15.0217 8.42031 15.0217Z" fill="#6859AC"/>
<path d="M8.4202 7.56274C3.77734 7.56274 0 11.3401 0 15.9828C0 18.2828 1.25459 21.2879 3.7288 24.9146C5.49892 27.5091 7.24618 29.4711 7.31962 29.5534C7.59969 29.8667 7.99998 30.0458 8.4202 30.0458C8.84041 30.0458 9.2407 29.8667 9.52078 29.5534C9.59432 29.4712 11.3415 27.5092 13.1116 24.9146C15.5859 21.288 16.8404 18.2828 16.8404 15.9828C16.8404 11.3401 13.0631 7.56274 8.4202 7.56274ZM8.4202 19.8963C6.26239 19.8963 4.50683 18.1408 4.50683 15.9829C4.50683 13.825 6.26239 12.0696 8.4202 12.0696C10.5781 12.0696 12.3336 13.8251 12.3336 15.9829C12.3337 18.1408 10.578 19.8963 8.4202 19.8963Z" fill="#6859AC"/>
<path d="M34.8063 39.4852H31.1331C28.5307 39.4852 26.4135 37.3679 26.4135 34.7656C26.4135 30.5353 22.9719 27.0938 18.7416 27.0938H15.1935C14.3781 28.2556 13.5854 29.2773 12.9636 30.0459H18.7418C21.3442 30.0459 23.4614 32.1632 23.4614 34.7656C23.4614 38.9958 26.903 42.4374 31.1332 42.4374H37.0362C36.4143 41.6687 35.6215 40.6469 34.8063 39.4852Z" fill="#6859AC"/>
<path d="M41.5797 27.4131C41.0496 27.4131 40.6183 27.8443 40.6183 28.3744C40.6183 28.9045 41.0496 29.3357 41.5797 29.3357C42.1097 29.3357 42.541 28.9045 42.541 28.3744C42.541 27.8442 42.1097 27.4131 41.5797 27.4131Z" fill="#6859AC"/>
<path d="M41.5797 19.9541C36.9368 19.9541 33.1596 23.7314 33.1596 28.3742C33.1596 30.6743 34.4142 33.6794 36.8884 37.306C38.6585 39.9005 40.4057 41.8626 40.4791 41.9448C40.7593 42.2581 41.1595 42.4372 41.5798 42.4372C42.0001 42.4372 42.4003 42.2581 42.6805 41.9448C42.754 41.8626 44.5012 39.9006 46.2712 37.306C48.7455 33.6795 50 30.6743 50 28.3742C49.9999 23.7313 46.2226 19.9541 41.5797 19.9541ZM41.5797 32.2877C39.4218 32.2877 37.6663 30.5321 37.6663 28.3743C37.6663 26.2164 39.4219 24.4609 41.5797 24.4609C43.7375 24.4609 45.4931 26.2165 45.4931 28.3743C45.4931 30.5321 43.7376 32.2877 41.5797 32.2877Z" fill="#6859AC"/>
</g>
<defs>
<clipPath id="clip0">
<rect width="50" height="50" fill="white"/>
</clipPath>
</defs>
</svg>
